<?xml version="1.0" encoding="UTF-8"?>
<svg version="1.1" viewBox="0 0 2048 1752" width="50" height="43" xmlns="http://www.w3.org/2000/svg" shape-rendering="geometricPrecision">
<!-- Professional RRC logo with thick, sleek design -->
<defs>
  <!-- Subtle drop shadow for depth -->
  <filter id="shadow" x="-50%" y="-50%" width="200%" height="200%">
    <feGaussianBlur in="SourceAlpha" stdDeviation="4"/>
    <feOffset dx="0" dy="2" result="offsetblur"/>
    <feFlood flood-color="#000000" flood-opacity="0.15"/>
    <feComposite in2="offsetblur" operator="in"/>
    <feMerge>
      <feMergeNode/>
      <feMergeNode in="SourceGraphic"/>
    </feMerge>
  </filter>
  
  <!-- Define reusable styles -->
  <style>
    .outer-path {
      fill: #2563EB;
      stroke: #2563EB;
      stroke-width: 24;
      stroke-linejoin: round;
      stroke-linecap: round;
      stroke-miterlimit: 10;
      paint-order: stroke fill;
    }
    .center-path {
      fill: #2563EB;
      stroke: #2563EB;
      stroke-width: 30;
      stroke-linejoin: round;
      stroke-linecap: round;
      stroke-miterlimit: 10;
      paint-order: stroke fill;
    }
  </style>
</defs>

<g transform="scale(1.15) translate(-200, -250)" filter="url(#shadow)">
  <!-- Outer paths with thick strokes -->
  <path transform="translate(391,1251)" 
        d="m0 0 2 1 5 14 1 2 1-8 5 5 14 27 9 16 14 22 8 12 13 18 12 15 7 8 11 12 7 8 12 13 26 26 8 7 15 13 14 11 11 9 20 15 22 15 19 12 22 13 24 13 16 8 21 10 31 13 35 13 25 8 35 10 31 7 31 6 47 7 18 2 15 1 29 1h47l30-1 37-3 33-4 36-7 14-2 7-3 26-6 20-6 24-7 19-7 14-5 22-9 8-4 14-5 26-13 36-19 4-1v-2l13-7 4-1v-2l6-3 15-10 6-3 1-2h3v-2l10-6 5-5 9-5 10-8 8-7 5-5h3l1-3h3l1-3 13-10 12-11 15-14 7-8 5-5 5-6 5-5 11-12 22-28 11-16 8-11 13-21 10-17 5-7 3-7h2v-3h2l2-6 3 1 4-4 4-1 1 4-7 17-12 25-10 19-13 23-8 14-12 19-8 11-16 24-8 10-10 13-11 13h-2l-2 6-9 10-7 8-12 13-23 23-8 7-13 12-12 9-1 2-6 3-1 4h-4l-1 3-4 1-5 6-10 5h-2l1 4h-2v2l-9 4-6 1 3 2-1 3h-5v2l-7 1v2h-3l2 4-7 2h-3v2l-3 1-2 1-5-1v2l4 2-4 2-5 2-3 1-2-1v2l-4 1 3 4-2 1h-3l-2 1-3-1v2l-5 2-6 1 3 4-9 2-3 2h-6v2l-5 3h-2v2h-4v2l-7 1v2l-10 3v3l-17 6-12 6-34 13-40 13-23 6-21 5-20 4-13 3-25 3-42 3h-92l-37-2-32-3-39-7-29-7-29-8-36-12-27-10-12-5-16-8-18-8-7-3v-2l-3-1-4-2-1-2-12-4v-3l-4-1-8-4-5-2-1-3-6-2-8-4-3-3 2-3-4 1-10-5-6-5-11-7-10-8-17-13-16-13-11-9-15-14-10-9-32-32-7-8-9-10-9-11-11-13-8-11-14-19-12-17-15-23-13-22-13-23-14-27-10-21-6-13-3-9-1-6z" 
        class="outer-path"/>
        
  <path transform="translate(979,296)" 
        d="m0 0h147l32 2 29 4 28 6 34 9 35 11 27 10 24 10 26 12 24 12 23 13 23 14 27 18 19 14 18 14 16 13 11 10 8 7 13 12 27 27 7 8 9 10 9 11 10 12 13 17 12 16 16 24 9 14 17 29 12 22 14 27 10 22 4 10v2h-5l-2-6h-2l1 7-7-6-14-26-17-28-14-21-14-19-11-13-9-11-9-10-7-8-11-12-19-19-8-7-11-10-22-18-26-20-16-11-11-7-12-8-17-10-10-6-27-14-30-15-35-15-27-10-3-1-1-3h-2l-3 1-10-4v-2l-4-1-3 1-30-9-34-9-51-10-37-5-40-3-17-1h-63l-64 4-27 3-10 3-39 7-40 10-35 10-21 7-16 6-10 3-7 4-4 2-14 4-1 1 5 2-2 1-8-2 1 3-9 2-4 2h-5l1 2 4 2h-10v2l-10 4-5 1 4 4-9-1 1 3-5 1-9 3 3 3-12 4-5 2h-3l-1 5-14 7-5 4-9 6h-2l-1 3-5 1v2l-10 6-11 8-10 8-8 6-10 8-8 6-7 7-8 7-13 12-8 8h-2l-1 3-8 7-12 12-7 8-7 7-9 11-6 7h-2l-2 5-8 10-9 12-9 13-11 18-18 30-5 9-3 3-7 1-1-4 2-8 4-9 5-12 12-23 13-23 12-20 9-14 16-24 7-10 13-18 27-33 5-5 7-9 8-7 15-15 8-7 10-11 5-4 5-6 8-7 14-13 10-8 5-3 9-5 8-7 11-8h2v-2l3-1 1-2h2l2-4 13-8 8-5 4-1 5-5 12-5 4-4 6-3h3v-2l6-3 14-8 16-8 22-10 30-12 28-10 29-9 38-10 39-7 18-2z" 
        class="outer-path"/>
        
  <!-- Center paths with extra thick strokes -->
  <path transform="translate(1038,757)" 
        d="m0 0h29l24 3 28 6 21 7 18 8 17 9 21 14 14 11 7 7 8 7 9 9 7 8 12 15 11 16 7 13-1 2-4-4-1 1 2 5-1 4-6-7-5-3-4-6-13-16-12-13-15-13-19-13-21-12-18-8-30-10-28-6-27-3h-34l-25 3-24 5-33 11-18 8-19 11-17 12-10 9-8 7-10 10-7 8-9 11h-2l-2 4-5 4-4 6h-2l-1-5-1-4 2-6 5-6 4-8 10-14 12-14 7-8 8-7 13-12 16-12 16-10 16-9 17-8 27-9 38-7z" 
        class="center-path"/>
        
  <path transform="translate(835,1108)" 
        d="m0 0 6 2 3 3 3 1v2l3 1 5 7v2h2l8 10 11 12 5 5 11 9 10 8 13 9 16 9 12 6 26 10 18 5 25 5 17 2h43l27-3 16-3 27-8 15-6 21-10 18-11 14-10 11-9 12-11 10-10 3-5 4-2 2-4 6-9h3v-2h5l2 5-4 9-6 10-9 12-11 13-16 17-12 11-17 13-14 9-18 10-20 9-27 9-20 4-27 3h-30l-30-4-25-6-24-8-19-9-13-8-17-12-13-11-8-7-12-11-11-12-12-16-10-14-6-10-2-6z" 
        class="outer-path"/>
        
  <path transform="translate(1038,907)" 
        d="m0 0h26l20 4 18 8 12 8 14 14 8 12-1 2-2-1 2 2-1 4 4 8-1 2-13-15-8-9-14-10-14-7-16-4-7-1h-25l-18 4-16 7-12 8-15 14-7 5 2-6-3 2 1-9 9-11 11-11 13-9 15-7z" 
        class="center-path"/>
        
  <path transform="translate(1128,1046)" 
        d="m0 0 4 1v3h2l1-3 3 2-7 11-13 14-16 12-14 7-12 4-21 3-14-1-20-5-16-7-13-9-14-14-7-10-1-3h3l1-2 5 4h3l8 5 11 9 15 8 19 5 7 1h20l15-2 14-5 17-9 13-12z" 
        class="center-path"/>
</g>
</svg>